<svg xmlns="http://www.w3.org/2000/svg" viewBox="0 0 52.46 63.93"><defs><style>.cls-1{fill:#393636;}</style></defs><g id="Layer_2" data-name="Layer 2"><g id="Layer_1-2" data-name="Layer 1"><path class="cls-1" d="M9.79,62h0A17.91,17.91,0,0,1,0,46.06V13.22A4.79,4.79,0,0,1,8,9.5V5.36A5.37,5.37,0,0,1,13.36,0,5.23,5.23,0,0,1,18,2.65,5.67,5.67,0,0,1,22.8,0a5.46,5.46,0,0,1,4.12,1.85,6.07,6.07,0,0,1,1.34,2.53l-.1-.07.1.07a6.14,6.14,0,0,1,.2,1.54v.33a5.37,5.37,0,0,1,.92-.73h0a5.31,5.31,0,0,1,7.34,1.65A5.18,5.18,0,0,1,37.44,9a6,6,0,0,1,.15,1.33V37.51l1.9-1.78h0l.35-.34a8.34,8.34,0,0,1,11.64.16,3.29,3.29,0,0,1,1,2.31A7.58,7.58,0,0,0,50.6,37a2.25,2.25,0,0,0-.24-.3,6.76,6.76,0,0,0-9.43-.13L39.49,37.9h0l-2.15,2a.82.82,0,0,1-.55.22H27.54a10.16,10.16,0,0,0-7.7,3.53l-1.2-1a11.74,11.74,0,0,1,8.9-4.08H36V10.29a4.16,4.16,0,0,0-.52-2.07,3.75,3.75,0,0,0-7,1.83V28.72H26.87V5.92a4.49,4.49,0,0,0-.64-2.37,4.05,4.05,0,0,0-7.51,2.11V28.72H17.13V5.37a3.82,3.82,0,0,0-.45-1.84,3.63,3.63,0,0,0-3.32-1.94A3.77,3.77,0,0,0,9.59,5.36V28.72H8V13.06a3.19,3.19,0,0,0-.27-1.3h0a3.21,3.21,0,0,0-6.14,1.45V46.05A16.28,16.28,0,0,0,5.32,56.46a16,16,0,0,0,12.37,5.87c8.13,0,13.66-2.46,19.1-8.49L50.42,39.06A1.72,1.72,0,0,0,50.6,37a7.58,7.58,0,0,1,1.86.89,3.3,3.3,0,0,1-.88,2.27L38,54.91a26.88,26.88,0,0,1-8.55,6.64,26.91,26.91,0,0,1-11.73,2.37A17.51,17.51,0,0,1,9.79,62Z"/></g></g></svg>