<svg xmlns="http://www.w3.org/2000/svg" viewBox="0 0 60.2 64.76"><defs><style>.cls-1{fill:#393636;}</style></defs><g id="Layer_2" data-name="Layer 2"><g id="Layer_1-2" data-name="Layer 1"><path class="cls-1" d="M25.9,64.76A25.92,25.92,0,0,1,0,38.86V17a7.81,7.81,0,0,1,13.59-5.27V8.26a8.25,8.25,0,0,1,15.5-4A8.34,8.34,0,0,1,40.42,1a8.44,8.44,0,0,1,3.2,3.16,7.23,7.23,0,0,1,12.82.53,7.29,7.29,0,0,0-3-.68,5.14,5.14,0,0,0-8.2,1.43,8.35,8.35,0,0,0-4.87-2,6.28,6.28,0,0,0-8.84.8,6.66,6.66,0,0,0-.8,1.23,8.2,8.2,0,0,0-4.93-2A6.2,6.2,0,0,0,15.64,8.26V14a7.85,7.85,0,0,0-4-1.3A5.76,5.76,0,0,0,2.05,17v8.89a5.78,5.78,0,0,0,1.44,3.8v2.7A7.62,7.62,0,0,1,2.06,31.2v7.66A23.84,23.84,0,0,0,25.9,62.7h3.44A28.85,28.85,0,0,0,58.15,33.89v0A11.38,11.38,0,0,0,46.77,22.51H17a1.4,1.4,0,0,0-1.4,1.4v1.52a9.76,9.76,0,0,0,9.74,9.74H40.13v2H40A11,11,0,0,0,29,48.16V51.7H27V48.17a13,13,0,0,1,6-10.94H25.38A11.82,11.82,0,0,1,14.5,30,7.81,7.81,0,0,1,3.77,32.61l-.28-.18v-2.7a5.77,5.77,0,0,0,10.1-3.8V17a5.75,5.75,0,0,0-2-4.31,7.67,7.67,0,0,1,4,1.3v6.73a3.39,3.39,0,0,1,1.4-.3H28V8.26a6.22,6.22,0,0,0-2.21-4.75,8.2,8.2,0,0,1,4.93,2,6.3,6.3,0,0,0-.66,2.8V20.45H42.66V8.34A6.28,6.28,0,0,0,40.4,3.51a8.23,8.23,0,0,1,4.86,2,5.22,5.22,0,0,0-.54,2.3V20.45h2.05a13.39,13.39,0,0,1,8.29,2.87V7.78a5.15,5.15,0,0,0-1.6-3.73,7.09,7.09,0,0,1,3,.68,7.15,7.15,0,0,1,.68,3.05V25.32a13.36,13.36,0,0,1,3.09,8.55h0A30.89,30.89,0,0,1,29.34,64.76Z"/></g></g></svg>