<svg xmlns="http://www.w3.org/2000/svg" viewBox="0 0 42.35 66.28"><defs><style>.cls-1{fill:#393636;}</style></defs><g id="Layer_2" data-name="Layer 2"><g id="Layer_1-2" data-name="Layer 1"><path class="cls-1" d="M41.87,3.17a5,5,0,0,0-.61-1,5.39,5.39,0,0,0-9.64,2.49L29.89,16.53l-1.15,7.89L25.87,4.72a5.39,5.39,0,0,0-10.68,1.5l2.44,17.36a5.65,5.65,0,0,0-2.15-.43h0a5.7,5.7,0,0,0-5.68,5.68v.49A5.68,5.68,0,0,0,0,33.25V46.52A20.07,20.07,0,0,0,5.11,59.93,18.8,18.8,0,0,0,7.29,62a18.49,18.49,0,0,0,10.57,4.21c.42,0,.83,0,1.24,0a19.21,19.21,0,0,0,13.11-5.16,19.56,19.56,0,0,0,6.06-14.49h0c0-11.71,0-11.71,1.69-23.61.56-3.94,1.33-9.33,2.34-16.87A5.43,5.43,0,0,0,41.87,3.17ZM11.36,28.83a4.11,4.11,0,0,1,4.1-4.1h0a4.1,4.1,0,0,1,4.09,4.1v7.46h-6.5a3.18,3.18,0,0,0-1.7.47V28.83ZM1.58,33.25a4.1,4.1,0,0,1,8.2,0h0v5.88a3.87,3.87,0,0,0,0,.48v.13a4.1,4.1,0,0,1-8.17-.52ZM31.13,60A17.62,17.62,0,0,1,18,64.65,17,17,0,0,1,6.29,58.88a18.57,18.57,0,0,1-4.7-12.37V43.15a5.55,5.55,0,0,0,1.1.9,5.67,5.67,0,0,0,7.62-1.53,7.83,7.83,0,0,0,7.25,4.9H20a9,9,0,0,0-3.88,7.37v2.42h1.59V54.79a7.37,7.37,0,0,1,7.37-7.37V45.84h-7.5a6.23,6.23,0,0,1-6.22-6,5.07,5.07,0,0,0,0-.55,1.74,1.74,0,0,1,1.7-1.4H27.94a8.76,8.76,0,0,1,8.75,8.75A18,18,0,0,1,31.13,60Zm9.6-54c-1,7.54-1.77,12.93-2.33,16.86-1.4,9.8-1.65,11.6-1.7,18.36a10.34,10.34,0,0,0-8.77-4.86H21.14V28.83a5.51,5.51,0,0,0-.89-3,5.41,5.41,0,0,0-.86-1.05L16.76,6A3.81,3.81,0,1,1,24.3,4.94L28,30a.8.8,0,0,0,.9.67.8.8,0,0,0,.67-.67l1.17-8,2.5-17.16a3.81,3.81,0,0,1,7.54,1.07Z"/></g></g></svg>