<svg xmlns="http://www.w3.org/2000/svg" width="61.205" height="65.756" viewBox="0 0 61.205 65.756"><g transform="translate(-453.5 -1134.5)"><path d="M248.28,320.439v-7.656a7.886,7.886,0,0,0,1.438,1.231v-2.705a5.74,5.74,0,0,1-1.438-3.8v-8.889a5.761,5.761,0,0,1,9.579-4.318,7.77,7.77,0,0,1,4.006,1.3V289.84a6.2,6.2,0,0,1,10.189-4.747,8.219,8.219,0,0,1,4.932,2.026,6.274,6.274,0,0,1,9.637-2.025,8.3,8.3,0,0,1,4.864,1.967,5.164,5.164,0,0,1,8.2-1.427,7.181,7.181,0,0,1,2.972.677,7.223,7.223,0,0,0-12.819-.53,8.334,8.334,0,0,0-14.528.1,8.257,8.257,0,0,0-15.5,3.957v3.5a7.817,7.817,0,0,0-13.585,5.278v21.823a25.859,25.859,0,0,0,9.424,19.969,25.854,25.854,0,0,1-5.013-9.638A23.7,23.7,0,0,1,248.28,320.439Z" transform="translate(207.775 853.418)" fill="#393636" stroke="rgba(0,0,0,0)" stroke-miterlimit="10" stroke-width="1"/><path d="M286.944,357.776a30.9,30.9,0,0,0,30.868-30.868V326.9h0v-.009h0a13.424,13.424,0,0,0-3.09-8.553V300.8a7.183,7.183,0,0,0-.679-3.053,7.182,7.182,0,0,0-2.972-.677,5.155,5.155,0,0,1,1.6,3.73v15.541a13.371,13.371,0,0,0-8.292-2.871h-2.049V300.8a5.137,5.137,0,0,1,.543-2.3,8.3,8.3,0,0,0-4.864-1.966,6.272,6.272,0,0,1,2.265,4.826v12.114H287.707V301.357a6.241,6.241,0,0,1,.661-2.8,8.219,8.219,0,0,0-4.932-2.026,6.192,6.192,0,0,1,2.216,4.747v12.193h-11a3.436,3.436,0,0,0-1.4.3v-3.714h0v-3.015a7.769,7.769,0,0,0-4.006-1.3,5.751,5.751,0,0,1,1.951,4.318v8.889a5.762,5.762,0,0,1-10.092,3.8v2.705A7.809,7.809,0,0,0,272.107,323a11.816,11.816,0,0,0,10.882,7.242h7.574a13,13,0,0,0-5.988,10.94v3.539h2.055v-3.539a10.952,10.952,0,0,1,10.94-10.94h.168v-2.055H282.989a9.754,9.754,0,0,1-9.743-9.743v-1.52a1.4,1.4,0,0,1,1.4-1.4h29.726a11.381,11.381,0,0,1,11.382,11.349v.033a28.846,28.846,0,0,1-28.813,28.813h-3.438a23.874,23.874,0,0,1-21.488-13.513,25.854,25.854,0,0,0,5.013,9.638,25.78,25.78,0,0,0,16.475,5.93Z" transform="translate(196.393 841.98)" fill="#393636" stroke="rgba(0,0,0,0)" stroke-miterlimit="10" stroke-width="1"/></g></svg>