<svg xmlns="http://www.w3.org/2000/svg" width="61.206" height="65.756" viewBox="0 0 61.206 65.756"><path d="M25.9,64.756A25.926,25.926,0,0,1,0,38.857V17.034a7.817,7.817,0,0,1,13.586-5.278v-3.5A8.256,8.256,0,0,1,29.089,4.3a8.334,8.334,0,0,1,14.528-.1,7.223,7.223,0,0,1,12.82.53,7.175,7.175,0,0,0-2.972-.677,5.164,5.164,0,0,0-8.2,1.427A8.294,8.294,0,0,0,40.4,3.511a6.274,6.274,0,0,0-9.637,2.025A8.218,8.218,0,0,0,25.829,3.51,6.2,6.2,0,0,0,15.64,8.258v5.761a7.779,7.779,0,0,0-4.007-1.3,5.76,5.76,0,0,0-9.579,4.318v8.888a5.743,5.743,0,0,0,1.438,3.8v2.7A7.9,7.9,0,0,1,2.055,31.2v7.655A23.849,23.849,0,0,0,25.9,62.7h3.438A28.846,28.846,0,0,0,58.151,33.888v-.033A11.382,11.382,0,0,0,46.769,22.506H17.042a1.4,1.4,0,0,0-1.4,1.4v1.52a9.753,9.753,0,0,0,9.742,9.743H40.131v2.055h-.168a10.952,10.952,0,0,0-10.939,10.94v3.539H26.969V48.166a13,13,0,0,1,5.988-10.94H25.383A11.816,11.816,0,0,1,14.5,29.984,7.808,7.808,0,0,1,3.493,32.431v-2.7a5.762,5.762,0,0,0,10.093-3.8V17.034a5.751,5.751,0,0,0-1.952-4.318,7.779,7.779,0,0,1,4.007,1.3v6.73a3.423,3.423,0,0,1,1.4-.3h11V8.258A6.193,6.193,0,0,0,25.829,3.51a8.223,8.223,0,0,1,4.932,2.026,6.244,6.244,0,0,0-.661,2.8V20.451H42.664V8.337A6.27,6.27,0,0,0,40.4,3.511a8.294,8.294,0,0,1,4.864,1.967,5.143,5.143,0,0,0-.544,2.3V20.451h2.05a13.372,13.372,0,0,1,8.292,2.871V7.781a5.157,5.157,0,0,0-1.6-3.731,7.189,7.189,0,0,1,2.972.677,7.194,7.194,0,0,1,.679,3.054V25.316a13.431,13.431,0,0,1,3.091,8.553v.009h0v.009A30.9,30.9,0,0,1,29.337,64.756Z" transform="translate(0.5 0.5)" fill="#393636" stroke="rgba(0,0,0,0)" stroke-miterlimit="10" stroke-width="1"/></svg>