<svg xmlns="http://www.w3.org/2000/svg" width="43.353" height="67.278" viewBox="0 0 43.353 67.278"><path d="M1007.482,239.314a5.431,5.431,0,0,0-.606-1.02,5.391,5.391,0,0,0-9.643,2.49L995.5,252.679l-1.15,7.887-2.868-19.7a5.391,5.391,0,0,0-10.677,1.5l2.44,17.364a5.65,5.65,0,0,0-2.153-.43h-.016a5.688,5.688,0,0,0-5.682,5.682v.487a5.679,5.679,0,0,0-9.782,3.93v13.264a20.132,20.132,0,0,0,5.106,13.419,19.579,19.579,0,0,0,2.181,2.095,18.483,18.483,0,0,0,10.576,4.207q.621.04,1.239.04a19.219,19.219,0,0,0,13.112-5.155,19.578,19.578,0,0,0,6.054-14.495h0c0-11.711,0-11.711,1.692-23.607.56-3.936,1.327-9.326,2.338-16.873A5.352,5.352,0,0,0,1007.482,239.314Zm-30.506,25.664a4.1,4.1,0,0,1,4.1-4.1h.011a4.109,4.109,0,0,1,4.089,4.1v7.455h-6.5a3.3,3.3,0,0,0-1.705.472v-3.488c0-.007,0-.015,0-.022v-4.417Zm-9.782,4.417a4.1,4.1,0,0,1,8.2,0v5.885a3.347,3.347,0,0,0-.034.475c0,.044,0,.089,0,.133a4.1,4.1,0,0,1-8.168-.519Zm29.55,26.715a17.647,17.647,0,0,1-13.168,4.691,17.083,17.083,0,0,1-11.678-5.776,18.583,18.583,0,0,1-4.7-12.367V279.3a5.723,5.723,0,0,0,1.107.9,5.674,5.674,0,0,0,7.621-1.534,7.819,7.819,0,0,0,7.245,4.9h2.425a8.953,8.953,0,0,0-3.879,7.374v2.415h1.582v-2.415a7.383,7.383,0,0,1,7.374-7.374v-1.582h-7.5a6.232,6.232,0,0,1-6.221-6.02c.019-.18.029-.362.03-.546a1.742,1.742,0,0,1,1.705-1.4h14.863a8.764,8.764,0,0,1,8.754,8.754A18.013,18.013,0,0,1,996.744,296.11Zm9.6-54.036c-1.011,7.546-1.777,12.933-2.336,16.866-1.394,9.8-1.65,11.6-1.7,18.357a10.339,10.339,0,0,0-8.765-4.863h-6.786v-7.455a5.649,5.649,0,0,0-.892-3.053,5.717,5.717,0,0,0-.861-1.049l-2.633-18.734a3.809,3.809,0,0,1,7.545-1.057l3.651,25.081a.791.791,0,0,0,1.565,0l1.166-8,2.5-17.158a3.809,3.809,0,0,1,7.543,1.065Z" transform="translate(-965.112 -235.641)" fill="#fff" stroke="rgba(0,0,0,0)" stroke-miterlimit="10" stroke-width="1"/></svg>