<svg xmlns="http://www.w3.org/2000/svg" width="53.469" height="64.917" viewBox="0 0 53.469 64.917"><path d="M9.792,62.034h0A17.9,17.9,0,0,1,0,46.057V13.217A4.794,4.794,0,0,1,8,9.5V5.359A5.364,5.364,0,0,1,13.36,0,5.253,5.253,0,0,1,18,2.645,5.664,5.664,0,0,1,22.794,0a5.46,5.46,0,0,1,4.122,1.846,6.128,6.128,0,0,1,1.34,2.533l-.1-.072.1.072a6.161,6.161,0,0,1,.2,1.544v.324a5.459,5.459,0,0,1,.919-.73h0a5.321,5.321,0,0,1,8.063,3.441,6.054,6.054,0,0,1,.148,1.335V37.514l1.9-1.789h0l.355-.335a8.342,8.342,0,0,1,11.639.161,3.293,3.293,0,0,1,.977,2.312,7.524,7.524,0,0,0-1.857-.89,1.765,1.765,0,0,0-.238-.3,6.763,6.763,0,0,0-9.435-.13L39.49,37.9h0l-2.154,2.024a.793.793,0,0,1-.548.215H27.542a10.179,10.179,0,0,0-7.709,3.53l-1.2-1.036a11.763,11.763,0,0,1,8.909-4.08H36V10.293a4.206,4.206,0,0,0-.52-2.078,3.749,3.749,0,0,0-7.024,1.834V28.716H26.87V5.923a4.5,4.5,0,0,0-.64-2.377,4.054,4.054,0,0,0-7.513,2.116V28.716H17.132V5.372a3.908,3.908,0,0,0-.455-1.843A3.648,3.648,0,0,0,13.36,1.586,3.777,3.777,0,0,0,9.588,5.359V28.716H8V13.055a3.171,3.171,0,0,0-.277-1.3l.048,0-.047,0a3.209,3.209,0,0,0-6.14,1.458v32.84A16.3,16.3,0,0,0,5.319,56.463,16.014,16.014,0,0,0,17.692,62.33c8.125,0,13.66-2.461,19.1-8.494l13.622-14.78a1.707,1.707,0,0,0,.185-2.083,7.524,7.524,0,0,1,1.857.89,3.288,3.288,0,0,1-.876,2.267L37.967,54.905a26.983,26.983,0,0,1-8.546,6.647,26.9,26.9,0,0,1-11.729,2.364A17.445,17.445,0,0,1,9.792,62.034Z" transform="translate(0.5 0.5)" fill="#fff" stroke="rgba(0,0,0,0)" stroke-miterlimit="10" stroke-width="1"/></svg>